<svg id="visual" viewBox="0 0 900 600" width="900" height="600" xmlns="http://www.w3.org/2000/svg" xmlns:xlink="http://www.w3.org/1999/xlink" version="1.1"><rect x="0" y="0" width="900" height="600" fill="#001220"></rect><defs><linearGradient id="grad1_0" x1="33.3%" y1="100%" x2="100%" y2="0%"><stop offset="20%" stop-color="#001220" stop-opacity="1"></stop><stop offset="80%" stop-color="#001220" stop-opacity="1"></stop></linearGradient></defs><defs><linearGradient id="grad2_0" x1="0%" y1="100%" x2="66.7%" y2="0%"><stop offset="20%" stop-color="#001220" stop-opacity="1"></stop><stop offset="80%" stop-color="#001220" stop-opacity="1"></stop></linearGradient></defs><g transform="translate(900, 600)"><path d="M-243.4 0C-228.1 -26 -212.9 -52.1 -204.2 -84.6C-195.5 -117.1 -193.4 -156 -172.1 -172.1C-150.8 -188.2 -110.3 -181.3 -78.5 -189.4C-46.6 -197.5 -23.3 -220.4 0 -243.4L0 0Z" fill="#2a3ff8"></path></g><g transform="translate(0, 0)"><path d="M243.4 0C242.9 34.9 242.4 69.8 224.8 93.1C207.3 116.4 172.7 128.1 149.2 149.2C125.7 170.3 113.3 200.8 90.3 218C67.3 235.3 33.6 239.3 0 243.4L0 0Z" fill="#2a3ff8"></path></g></svg>