<svg id="visual" viewBox="0 0 960 540" width="960" height="540" xmlns="http://www.w3.org/2000/svg" xmlns:xlink="http://www.w3.org/1999/xlink" version="1.1"><rect x="0" y="0" width="960" height="540" fill="#001220"></rect><defs><linearGradient id="grad1_0" x1="43.8%" y1="0%" x2="100%" y2="100%"><stop offset="14.444444444444446%" stop-color="#001220" stop-opacity="1"></stop><stop offset="85.55555555555554%" stop-color="#001220" stop-opacity="1"></stop></linearGradient></defs><defs><linearGradient id="grad2_0" x1="0%" y1="0%" x2="56.3%" y2="100%"><stop offset="14.444444444444446%" stop-color="#001220" stop-opacity="1"></stop><stop offset="85.55555555555554%" stop-color="#001220" stop-opacity="1"></stop></linearGradient></defs><g transform="translate(960, 0)"><path d="M0 297C-33.6 278.8 -67.2 260.6 -102.6 247.6C-138 234.6 -175.2 226.9 -205.8 205.8C-236.4 184.7 -260.3 150.2 -274.4 113.7C-288.5 77.1 -292.7 38.6 -297 0L0 0Z" fill="#2a3ff8"></path></g><g transform="translate(0, 540)"><path d="M0 -297C43.3 -297.9 86.6 -298.8 113.7 -274.4C140.7 -250 151.6 -200.3 167.6 -167.6C183.6 -134.9 204.8 -119.2 227.3 -94.1C249.7 -69 273.4 -34.5 297 0L0 0Z" fill="#2a3ff8"></path></g></svg>